<svg xmlns="http://www.w3.org/2000/svg" viewBox="0 0 790.3 72.96">
    <defs>
        <style>.cls-1{fill:#ddd;}.cls-2{fill:#dd3026;}.cls-3{fill:#f2f2f2;}</style>
    </defs>
    <path class="cls-1"
          d="M298.28,51.5c0-9.06,0-18.12,0-27.18,0-3.66.09-3.76,3.57-3.77q16.86-.07,33.73,0a7.13,7.13,0,0,1,7.2,7.25c.07,4.36-.16,8.74.07,13.09A7.3,7.3,0,0,1,340,47.44c-.9.74-1.62,1.7-2.51,2.46-1.48,1.26-1.67,2.57,0,3.66,5.24,3.41,5.92,8.43,5.36,14.06-.23,2.33,0,4.7,0,7-.05,5.54-2.7,8.21-8.22,8.22q-16.11,0-32.23,0c-4,0-4.05,0-4.07-4.2Q298.25,65.1,298.28,51.5ZM321,29.67c-3.51,0-7,.13-10.53,0-2.52-.13-3.16.93-3.08,3.24.14,3.84.13,7.69,0,11.54-.07,2.2.8,2.93,2.92,2.89,5-.09,10,0,15-.06,2.9-.05,8.1-4.75,8.28-7.51s0-5.35.05-8c0-1.49-.71-2.06-2.15-2C328,29.7,324.47,29.68,321,29.67Zm-.51,44.09H325c9,0,9,0,8.63-9.12-.14-3.69-4.26-8.13-7.9-8.21-5.2-.13-10.4,0-15.59-.06-1.83,0-2.79.48-2.73,2.55.12,4,.13,8,0,12.07-.08,2.3.94,2.86,3,2.8C313.74,73.68,317.1,73.76,320.45,73.76Z"
          transform="translate(-9.24 -15.76)"/>
    <path class="cls-1"
          d="M789.65,56.41c-7.7,0-15.56,0-23.42,0-1.88,0-2.17,1-2.16,2.5q.06,9.81,0,19.63c0,4.18-.06,4.18-4.06,4.23-.84,0-1.68-.06-2.51,0-1.92.16-2.78-.66-2.73-2.59.06-2.52,0-5,0-7.56q0-23.65,0-47.32c0-4.75.05-4.79,4.66-4.8q17.87,0,35.75,0c4.29,0,4.33.06,4.34,4.55q0,26.68,0,53.37c0,4.32,0,4.32-4.44,4.34a15,15,0,0,0-2,0c-2.27.31-2.93-.8-2.9-2.9.06-6.2,0-12.41,0-18.62C790.17,59.77,790.48,58.25,789.65,56.41Zm-12.54-9.19c3.36,0,6.71-.08,10.06,0,2,.06,3.16-.44,3.11-2.75-.1-4-.11-8,0-12.07.06-2.29-1-2.83-3.06-2.81q-10.07.11-20.13,0c-2,0-3.16.44-3.1,2.76q.16,6,0,12.08c-.06,2.27,1,2.85,3,2.79C770.4,47.13,773.76,47.22,777.11,47.22Z"
          transform="translate(-9.24 -15.76)"/>
    <path class="cls-1"
          d="M511.11,82.6c-.78-1.28-.56-2.65-.56-4q0-26.69,0-53.38c0-.67,0-1.34,0-2-.09-1.86.68-2.82,2.64-2.71,1.34.07,2.69,0,4,0,11.42,0,22.83,0,34.25,0,3.62,0,3.71.09,3.72,3.58,0,18.46,0,36.93.06,55.39,0,2.61-.72,3.73-3.39,3.4-1.81-.23-3.68.3-5.88-.54V64c0-1.35-.1-2.7,0-4,.21-2.44-.42-3.67-3.26-3.59-6.71.19-13.43.14-20.14,0-2.26-.05-2.86.77-2.81,2.9.11,5.71,0,11.42,0,17.12,0,1.18-.07,2.36,0,3.53.15,2-.44,3.24-2.77,3C515.08,82.72,513.05,83.2,511.11,82.6ZM533,29.67c-3.51,0-7,.07-10.53,0-1.88-.06-2.75.54-2.72,2.53q.12,6.27,0,12.54c0,2,.79,2.6,2.7,2.58,6.85-.07,13.7-.06,20.55,0,2,0,3.12-.49,3-2.8-.13-4-.12-8,0-12,.07-2.26-.95-2.88-3-2.81C539.7,29.75,536.35,29.67,533,29.67Z"
          transform="translate(-9.24 -15.76)"/>
    <path class="cls-1"
          d="M449,82.5c-9.2,1-9.2,1-9.2-7.25a61.71,61.71,0,0,1,.07-8c.52-4-1.22-6.65-4-9.14a6.24,6.24,0,0,0-4.52-1.69c-4.87.06-9.74.12-14.6,0-2.38-.06-3.26.7-3.2,3.15.14,6,.06,12.09,0,18.13,0,1.66.26,3.36-.39,5-8.76.88-8.76.88-8.76-7.31V26.93c0-1.17.06-2.35,0-3.52-.12-2.17.9-2.93,3-2.91,6.21.08,12.42,0,18.63,0,5.21,0,10.41-.07,15.61,0a7.2,7.2,0,0,1,7.28,7.23c.09,4.19-.11,8.4.07,12.59.13,2.89-.5,5.25-2.88,7.05-.92.71-1.62,1.71-2.52,2.46-1.45,1.23-1.79,2.51-.07,3.63C449,57,449.35,62.31,449,68.06,448.75,72.88,449,77.74,449,82.5ZM423.54,47.27h5.54c6.65,0,10.72-4.11,10.74-10.82,0-1.35,0-2.69,0-4,.07-1.8-.48-2.8-2.54-2.77q-10.57.11-21.16,0c-2,0-2.66.82-2.63,2.7.05,4,.1,8.06,0,12.09-.07,2.26.91,3,3,2.86C418.83,47.2,421.18,47.27,423.54,47.27Z"
          transform="translate(-9.24 -15.76)"/>
    <path class="cls-1"
          d="M396,52c0,9.06,0,18.12,0,27.18,0,3.6-.07,3.69-3.49,3.67-6.43,0-5.59.71-5.63-5.59,0-5.71,0-11.41,0-17.12,0-3.66-.07-3.74-3.47-3.76-6.54-.06-13.09.08-19.63-.07-2.41-.06-3.2.62-3.14,3.09.16,6.71-.06,13.42.11,20.13.07,2.68-.84,3.69-3.44,3.36a9.17,9.17,0,0,0-2.51,0c-2.79.42-3.37-1-3.36-3.45.07-18.46,0-36.92.06-55.38,0-3.46.11-3.54,3.77-3.55q18.38,0,36.76,0c3.94,0,4,.07,4,4.3Q396,38.43,396,52Zm-22.6-4.76c3.51,0,7-.06,10.55,0,2.06.05,3.05-.59,3-2.85-.13-4-.09-8,0-12.06,0-1.85-.56-2.76-2.57-2.74-7,.06-14.06.08-21.09,0-1.94,0-2.69.65-2.65,2.6.08,4.18.1,8.37,0,12.55,0,2.07.92,2.55,2.75,2.51C366.69,47.21,370,47.27,373.39,47.27Z"
          transform="translate(-9.24 -15.76)"/>
    <path class="cls-1"
          d="M457.51,51.41c0-9,0-18.11,0-27.16,0-3.6.09-3.69,3.61-3.7,11.23-.05,22.47-.07,33.7,0a7.08,7.08,0,0,1,7.12,7.3c.06,4.19-.14,8.39.06,12.58.15,2.9-.54,5.2-2.87,7-1,.82-1.88,1.92-2.87,2.83s-1.16,1.93,0,2.92c.13.11.22.27.36.36,5.16,3.37,5.92,8.35,5.43,14a105.64,105.64,0,0,0,0,12.07c.06,2.18-.28,3.39-3,3.31-7.36-.22-6.12.52-6.21-6.14-.05-4,.05-8,0-12.07s-4.29-8.26-8.3-8.33c-5-.1-10.06,0-15.09-.06-2.22-.06-2.87.78-2.83,2.92.11,6.54.06,13.08,0,19.62,0,4-.06,4-4.19,4-5.26,0-4.92.53-4.92-4.82Zm18.68-4.14c3,0,5.55,0,8.06,0,1.19,0,2.39,0,3.29-.88,2.84-2.92,6.62-5.34,5.36-10.44a10.27,10.27,0,0,1,0-3.5c.21-2.24-.81-2.87-2.93-2.82-5.35.11-10.71,0-16.07,0-7.29,0-7.31,0-7.27,7.45,0,3.17.15,6.34.24,9.51C470.06,48.08,473.45,46.81,476.19,47.27Z"
          transform="translate(-9.24 -15.76)"/>
    <path class="cls-1"
          d="M701.86,51.73c0-9.23.08-18.47-.05-27.7,0-2.56.64-3.61,3.36-3.57,8.9.13,17.8.09,26.7,0a5.63,5.63,0,0,1,4.89,2c.1.13.24.23.35.36,3,3.13,7.06,5.81,8.72,9.54,1.51,3.38.46,7.91.47,11.94,0,7.89-.07,15.78.06,23.67A6.91,6.91,0,0,1,744,73.72c-3.09,2.83-5.59,6.69-9.16,8.5s-7.91.44-11.92.49c-5.88.08-11.76-.08-17.63.07-2.56.07-3.51-.64-3.47-3.35C702,70.2,701.86,61,701.86,51.73Zm9.13,0c0,6.37.08,12.74,0,19.11-.05,2.24.72,2.87,2.88,2.81,4.86-.14,9.73,0,14.59-.06,3.84,0,8.73-4.82,8.77-8.62q.11-13.33,0-26.67c0-3.44-4.9-8.49-8.34-8.58-5-.13-10.06.06-15.09-.07-2.28-.06-2.83.87-2.8,3C711.05,39,711,45.33,711,51.71Z"
          transform="translate(-9.24 -15.76)"/>
    <path class="cls-1"
          d="M635.72,72.15c3.85-4,7-7.52,10.38-10.78a7.62,7.62,0,0,0,2.55-6.14c-.15-10.07-.09-20.14,0-30.21,0-1.41-.78-3.42.94-4.08a11.31,11.31,0,0,1,7.38-.05c1.34.42.82,2,.83,3.15,0,9.57-.49,19.17.18,28.69.51,7.22-1.57,12.45-7.14,16.94-4,3.24-7.41,7.29-11.12,10.93-3.09,3-5.09,3.08-8.09.13-5.51-5.42-10.9-10.94-16.42-16.35a6.25,6.25,0,0,1-2-4.9c.08-11.74,0-23.49,0-35.24,0-3.6.09-3.6,3.64-3.73.5,0,1,0,1.51,0,3.89.06,4,.06,4,3.82,0,6.38,0,12.76,0,19.13a93.89,93.89,0,0,1-.07,10.07c-.41,3.76,1,6.31,3.72,8.73C629.25,65.17,632.13,68.45,635.72,72.15Z"
          transform="translate(-9.24 -15.76)"/>
    <path class="cls-1"
          d="M692.83,73.94c.88,8.79.88,8.79-7.37,8.79H666.78c-.14-1.13-.32-2-.35-2.76-.2-6.1-.19-6.26,5.92-6.31,2.62,0,3-1.07,3-3.29-.07-12.41-.1-24.83,0-37.25,0-2.63-.81-3.71-3.43-3.46a34.46,34.46,0,0,1-3.52,0c-.86,0-1.81-.12-1.85-1.21-.08-2.17-.11-4.35,0-6.52.08-1.32,1.25-1.4,2.27-1.4,7.38,0,14.77,0,22.15,0,1.44,0,2.21.55,2.2,2,0,.51,0,1,0,1.51.18,5.45.18,5.45-5.09,5.61-3.53.11-3.6.11-3.61,3.65q0,18.38,0,36.75c0,3.44.08,3.43,3.62,3.52,1.34,0,2.68.08,4,.13A4.34,4.34,0,0,1,692.83,73.94Z"
          transform="translate(-9.24 -15.76)"/>
    <path class="cls-1"
          d="M573,52.34c-.27-6.9-.49-13.75-.86-20.59-.12-2.27.85-2.92,2.91-2.92,2.85,0,5.7-.09,8.53-.3,2.12-.16,3.1.6,3.12,2.77.05,4.18.18,8.37.33,12.55.12,3.7.15,3.7,4.14,3,0-5.39,0-10.73,0-16.06,0-1.46.07-2.63,2.06-2.61,1.7,0,2.89.2,2.93,2.35.12,6.35.36,12.71.56,19.07,0,1.49-.23,2.7-2.08,2.7ZM582.16,41H582c0-1.84,0-3.69,0-5.54s-1.41-1.91-2.81-1.92-2.16.66-2.1,2.13c.14,3.18.39,6.37.37,9.55,0,2.06.88,2.62,2.74,2.52s2.09-1.21,2-2.71C582.09,43.72,582.16,42.38,582.16,41Z"
          transform="translate(-9.24 -15.76)"/>
    <path class="cls-1"
          d="M573.82,78.31c-.23-5.18-.55-10.36-.64-15.55,0-2.14-.66-3.09-2.9-2.78-1.32.18-2.68.08-4,.21-2,.2-2.62-.76-2.65-2.63s.63-2.31,2.33-2.35c9.55-.23,19.1-.53,28.65-.85,1.74-.06,2.36.76,2.39,2.4.11,6.37.23,12.74.44,19.11.08,2.19-1.23,2.45-2.89,2.45Zm18.49-11.57c-.22-7.4-.23-7.47-7.51-7.25-8.21.25-6.75-.85-6.69,7.08,0,7.12.15,7.12,7.36,7C592.51,73.52,592.51,73.52,592.31,66.74Z"
          transform="translate(-9.24 -15.76)"/>
    <path class="cls-1"
          d="M268.15,76.31c.87.31.54.82.22,1.33v2a1.3,1.3,0,0,1,.09,1.66l-.21,1.13c-1.19.08-2.39.23-3.58.23q-104.38,0-208.77,0c-1,0-2.1-.1-3.15-.15l-1.09-.67c-1-5-1.06-5.14,3.42-5.36,2.21-.11,2.42-1.24,2.26-2.87-.2-2,.48-3.2,2.71-2.91,3,.38,3.61-1.26,3.34-3.76q-.3-2.86,2.6-2.59c1,.1,2.07.15,3.11.22.07,1.2.11,2.4.22,3.58.18,1.87-.48,2.64-2.49,2.72-3.2.15-3.2.31-3.24,3.64,0,.6,0,1.2.07,1.8,1.29,1.58,3.08.93,4.65.93q73.34.06,146.67,0c1.46,0,3,.45,4.34-.68l1.12-.31,47.87.15Z"
          transform="translate(-9.24 -15.76)"/>
    <path class="cls-1"
          d="M70.87,22.24c1.5,0,3-.15,4.5-.15h188.4c1.49,0,3,.16,4.48.24.07.38.14.76.2,1.13a2.41,2.41,0,0,1,.17.58s-.17.11-.26.17v2.89c.36.51.71,1-.21,1.33l.16-.1-47.87.16-1.12-.32c-1-.95-2.25-.69-3.43-.69q-65.19,0-130.37,0c-1.31,0-2.77-.41-3.75.94-.13,4.94-.13,4.95,4.47,5.5a1.21,1.21,0,0,1,1,.78l-5.54,0a4.24,4.24,0,0,0-3-.68c-2.61.33-3.49-.91-3.2-3.34.2-1.66-.42-2.58-2.24-2.41-.59.05-1.2-.06-1.79,0-1.88.21-2.37-.8-2.2-2.43.11-1-.27-2.12.6-3Z"
          transform="translate(-9.24 -15.76)"/>
    <path class="cls-1"
          d="M274.64,33.8h6V70.46l-6,.49h-6c1.64-1.78,4,.16,6-1.31,0-10.9,0-22,0-33.07,0-1.81-.7-2.36-2.36-2.24a21.06,21.06,0,0,1-2.24-.08C271.51,33.35,273.1,33.8,274.64,33.8Z"
          transform="translate(-9.24 -15.76)"/>
    <path class="cls-1"
          d="M51.77,82.57c-1.17,1.91.17,4.19-.92,6.15H45.58a4.93,4.93,0,0,1-.32-1c-.32-4.76-.32-4.75-5.06-5.08-.27,0-.52-.25-.91-.45-.08-1.69-.17-3.46-.26-5.18-2-.7-4,.21-5.91-.7-.48-1.78-.17-3.6-.21-5.39v0c1-.07,2.07-.11,3.1-.21,2.17-.22,3.53.41,3.14,2.91s1,3.11,3.11,2.83c2.51-.34,3.58.72,3.24,3.23-.29,2.12.6,3,2.76,2.83a24.93,24.93,0,0,1,3.55.19Z"
          transform="translate(-9.24 -15.76)"/>
    <path class="cls-1"
          d="M32.91,70.9c-1.73-.65-3.56.09-5.36-.34-1-1.77,0-3.83-.79-5.82l-5.24-.29c-1.09-1.82.13-3.89-.84-5.74l-5.52-.24c-.73-1.89-.29-3.81-.35-5.68l0,0c1.33-.07,2.66-.14,4-.19s2.1.43,2.28,2c.43,3.67.53,3.66,4.39,3.74.59,0,1.19.06,1.78.1.31,5.79.31,5.79,5.72,6.06a25.46,25.46,0,0,1-.05,6.41Z"
          transform="translate(-9.24 -15.76)"/>
    <path class="cls-1"
          d="M14.81,52.79c-1.73-.76-3.57,0-5.57-.38V34.32c1.78-.88,3.75,0,5.61-.37l-.06-.08a180.53,180.53,0,0,1,0,18.9Z"
          transform="translate(-9.24 -15.76)"/>
    <path class="cls-1"
          d="M27.1,22.05V15.81c3.37,0,6.45.13,9.51,0,2.11-.11,3.12.45,2.8,2.71-.16,1.17-.16,2.37-.24,3.56h0L27,22.07Z"
          transform="translate(-9.24 -15.76)"/>
    <path class="cls-1"
          d="M57.33,22.08v-6a77.06,77.06,0,0,1,11.53-.17c1.22,2.12-.27,4.4,1,6.28l0-.11a112.15,112.15,0,0,1-12.57,0Z"
          transform="translate(-9.24 -15.76)"/>
    <path class="cls-1"
          d="M27.1,22.05l-.08,0c.81,6.23.81,6.23-5.08,6.25a8.89,8.89,0,0,0-.89.07l-.07-.1V22.51C23,21.66,25.11,22.26,27.1,22.05Z"
          transform="translate(-9.24 -15.76)"/>
    <path class="cls-1" d="M50.84,28.21c.33-6.15.33-6.15,6.49-6.13v0c-.17,6.18-.17,6.18-6.36,6.36Z"
          transform="translate(-9.24 -15.76)"/>
    <path class="cls-1" d="M39.17,22c6.11.07,6.11.07,6.49,6.14l-.16.26c-6.19-.23-6.19-.23-6.34-6.4Z"
          transform="translate(-9.24 -15.76)"/>
    <path class="cls-1"
          d="M274.64,33.8c-1.54,0-3.13-.45-4.58.45-1,.26-1.65-.07-1.67-1.21,0-1.57-.06-3.13-.08-4.7l-.16.1a4.81,4.81,0,0,1,1.23-.37C275.17,27.94,275.17,28,274.64,33.8Z"
          transform="translate(-9.24 -15.76)"/>
    <path class="cls-1" d="M14.85,34C14.7,27.8,14.7,27.8,21,28.29l.07.1c0,1.78,0,3.57,0,5.36a17.34,17.34,0,0,1-6.22.12Z"
          transform="translate(-9.24 -15.76)"/>
    <path class="cls-1" d="M268.63,71h6c.6,6.28.6,6.28-6.48,5.36l.16.1C268.42,74.59,268.53,72.77,268.63,71Z"
          transform="translate(-9.24 -15.76)"/>
    <path class="cls-1"
          d="M45.66,28.18l5.18,0,.13.21c.06,1.19.13,2.39.2,3.58.09,1.6-.83,2-2.24,2.06-3.21.18-3.58-.1-3.62-3.39a18.81,18.81,0,0,1,.19-2.23Z"
          transform="translate(-9.24 -15.76)"/>
    <path class="cls-1" d="M268.36,27.11V24.22A2.7,2.7,0,0,1,268.36,27.11Z" transform="translate(-9.24 -15.76)"/>
    <path class="cls-1" d="M51.66,81.84l1.09.67-1,.06,0,.09A1.37,1.37,0,0,1,51.66,81.84Z"
          transform="translate(-9.24 -15.76)"/>
    <path class="cls-1" d="M268.37,79.63v-2A1.53,1.53,0,0,1,268.37,79.63Z" transform="translate(-9.24 -15.76)"/>
    <path class="cls-1" d="M268.45,23.47c-.06-.37-.13-.75-.2-1.13C269.42,22.52,268.83,23,268.45,23.47Z"
          transform="translate(-9.24 -15.76)"/>
    <path class="cls-1" d="M70.87,22.24l-1.05.68a2,2,0,0,1,.08-.84l0,.11Z" transform="translate(-9.24 -15.76)"/>
    <path class="cls-1" d="M268.25,82.42l.21-1.13C268.81,81.74,269.39,82.24,268.25,82.42Z"
          transform="translate(-9.24 -15.76)"/>
    <path class="cls-2"
          d="M219.32,28.18l1.12.32V76.26l-1.12.31c-1.8,0-3.61-.15-5.42-.15H69.08c-1.8,0-3.61-.07-5.42-.1,0-.6-.08-1.2-.07-1.8,0-3.33,0-3.49,3.24-3.64,2-.08,2.67-.85,2.49-2.72-.11-1.18-.15-2.38-.22-3.58l-.07.07c.6,0,1.2-.07,1.8-.09,4.12-.08,4.22-.06,4.81-4,.29-1.92,1.46-2.13,2.87-2,2.71.3,3.45-1,3.19-3.44-.09-.89,0-1.81,0-2.71a2.68,2.68,0,0,0,2,.07c1.21,0,2.54.89,3.53-.54a137.1,137.1,0,0,0,0-17.2,1.21,1.21,0,0,0-1-.78c-4.6-.55-4.6-.56-4.47-5.5,1.81,0,3.61-.09,5.42-.09H213.9C215.71,28.34,217.52,28.24,219.32,28.18Z"
          transform="translate(-9.24 -15.76)"/>
    <path class="cls-2"
          d="M69.9,22.08a2,2,0,0,0-.08.84c-.87.86-.49,2-.6,3-.17,1.63.32,2.64,2.2,2.43.59-.06,1.2.05,1.79,0,1.82-.17,2.44.75,2.24,2.41-.29,2.43.59,3.67,3.2,3.34a4.24,4.24,0,0,1,3,.68,162.37,162.37,0,0,0,.06,17.09,4.85,4.85,0,0,1-2.54.74c-3.32.23-3.36.25-3.71,3.61-.12,1.12-.16,2-1.64,2.12s-3.27-.7-4.24.63-.15,3.19-.45,4.8c0,.29-.08.59-.11.89l.07-.07c-1-.07-2.08-.12-3.11-.22q-2.89-.27-2.6,2.59c.27,2.5-.36,4.14-3.34,3.76-2.23-.29-2.91.87-2.71,2.91.16,1.63-.05,2.76-2.26,2.87-4.48.22-4.47.37-3.42,5.36a1.37,1.37,0,0,0,.14.82,24.93,24.93,0,0,0-3.55-.19c-2.16.18-3-.71-2.76-2.83.34-2.51-.73-3.57-3.24-3.23-2.12.28-3.5-.31-3.11-2.83s-1-3.13-3.14-2.91c-1,.1-2.07.14-3.1.21A25.46,25.46,0,0,0,33,64.47l.18-.15c1.2,0,2.41,0,3.61.11,1.59.1,2.54-.28,2.46-2.2-.13-3.13,0-6.27,0-9.47a14.93,14.93,0,0,0-1.52-.2c-4.25,0-4.39,0-4.63-4.12-.12-2-1.14-2-2.61-2.1-3.09-.19-3.09-.26-3.17-3.33,0-.75,0-1.51,0-2.26,0-6,0-6-5.9-6.67L21,33.75c0-1.79,0-3.58,0-5.36a8.89,8.89,0,0,1,.89-.07c5.89,0,5.89,0,5.08-6.25l12.14,0c.15,6.17.15,6.17,6.34,6.4a18.81,18.81,0,0,0-.19,2.23c0,3.29.41,3.57,3.62,3.39,1.41-.08,2.33-.46,2.24-2.06-.07-1.19-.14-2.39-.2-3.58,6.19-.18,6.19-.18,6.36-6.36A112.15,112.15,0,0,0,69.9,22.08Z"
          transform="translate(-9.24 -15.76)"/>
    <path class="cls-1"
          d="M63.66,76.31c1.81,0,3.62.1,5.42.1H213.9c1.81,0,3.62.1,5.42.15-1.3,1.13-2.88.68-4.34.68q-73.33,0-146.67,0C66.74,77.24,65,77.89,63.66,76.31Z"
          transform="translate(-9.24 -15.76)"/>
    <path class="cls-1"
          d="M219.32,28.18c-1.8.06-3.61.16-5.42.16H87.19c-1.81,0-3.61.06-5.42.09,1-1.35,2.44-.94,3.75-.94q65.18,0,130.37,0C217.07,27.49,218.32,27.23,219.32,28.18Z"
          transform="translate(-9.24 -15.76)"/>
    <path class="cls-1"
          d="M81.72,51.85a162.37,162.37,0,0,1-.06-17.09l5.54,0a137.1,137.1,0,0,1,0,17.2c-1.19.09-2.45-.32-3.53.54a2.68,2.68,0,0,1-2-.07A1.09,1.09,0,0,0,81.72,51.85Z"
          transform="translate(-9.24 -15.76)"/>
    <path class="cls-2"
          d="M14.79,33.87A17.34,17.34,0,0,0,21,33.75l.33.33V52c5.84.56,5.84.56,6.07,6.27l-.18.14c-.59,0-1.19-.08-1.78-.1-3.86-.08-4-.07-4.39-3.74-.18-1.56-.9-2-2.28-2s-2.67.12-4,.19A180.53,180.53,0,0,0,14.79,33.87Z"
          transform="translate(-9.24 -15.76)"/>
    <path class="cls-2" d="M33,64.47c-5.41-.27-5.41-.27-5.72-6.06l.18-.14c5.5.23,5.5.23,5.69,5.61l0,.44Z"
          transform="translate(-9.24 -15.76)"/>
    <path class="cls-1"
          d="M81.72,51.85a1.09,1.09,0,0,1,0,.54c0,.9-.07,1.82,0,2.71.26,2.4-.48,3.74-3.19,3.44-1.41-.15-2.58.06-2.87,2-.59,4-.69,3.95-4.81,4-.6,0-1.2.06-1.8.09,0-.3.06-.6.11-.89.3-1.61-.53-3.48.45-4.8s2.79-.53,4.24-.63,1.52-1,1.64-2.12c.35-3.36.39-3.38,3.71-3.61A4.85,4.85,0,0,0,81.72,51.85Z"
          transform="translate(-9.24 -15.76)"/>
    <path class="cls-1" d="M83.65,52.46c1.08-.86,2.34-.45,3.53-.54C86.19,53.35,84.86,52.51,83.65,52.46Z"
          transform="translate(-9.24 -15.76)"/>
    <path class="cls-3"
          d="M33.13,64.32l0-.44c-.19-5.38-.19-5.38-5.69-5.61-.23-5.71-.23-5.71-6.07-6.27V34.08c5.9.62,5.9.62,5.9,6.67,0,.75,0,1.51,0,2.26.08,3.07.08,3.14,3.17,3.33,1.47.09,2.49.1,2.61,2.1.24,4.1.38,4.09,4.63,4.12a14.93,14.93,0,0,1,1.52.2c0,3.2-.1,6.34,0,9.47.08,1.92-.87,2.3-2.46,2.2C35.54,64.35,34.33,64.35,33.13,64.32Z"
          transform="translate(-9.24 -15.76)"/>
</svg>