<?xml version="1.0" encoding="utf-8"?>
<!-- Generator: Adobe Illustrator 24.2.3, SVG Export Plug-In . SVG Version: 6.00 Build 0)  -->
<svg version="1.1" id="Camada_1" xmlns="http://www.w3.org/2000/svg" xmlns:xlink="http://www.w3.org/1999/xlink" x="0px" y="0px"
	 viewBox="0 0 1000 232.65" style="enable-background:new 0 0 1000 232.65;" xml:space="preserve">
<style type="text/css">
	.st0{fill:#dde1e2;}
	.st1{fill:#dde1e2;}
	.st2{fill:#dde1e2;}
	.st3{fill:#DD3026;}
	.st4{fill:#F2F2F2;}
	.st5{fill:#FFFFFF;}
</style>
<path class="st0" d="M368.99,114.92c0-9.06-0.03-18.12,0.01-27.19c0.02-3.65,0.09-3.75,3.57-3.77c11.24-0.05,22.49-0.06,33.73,0.01
	c4.11,0.03,7.13,3.14,7.2,7.25c0.07,4.36-0.16,8.74,0.08,13.09c0.15,2.81-0.79,4.83-2.87,6.54c-0.9,0.74-1.62,1.71-2.51,2.46
	c-1.48,1.26-1.67,2.57,0,3.65c5.24,3.41,5.93,8.44,5.36,14.06c-0.23,2.33-0.02,4.7-0.04,7.04c-0.05,5.54-2.7,8.22-8.22,8.23
	c-10.74,0.02-21.48,0.02-32.22,0c-4.01-0.01-4.06-0.06-4.07-4.2C368.97,133.05,368.99,123.99,368.99,114.92z M391.67,93.09
	c-3.51,0-7.03,0.13-10.53-0.04c-2.52-0.13-3.16,0.93-3.08,3.24c0.14,3.84,0.13,7.69,0,11.53c-0.08,2.21,0.8,2.93,2.92,2.89
	c5.01-0.09,10.03,0.04,15.05-0.06c2.9-0.05,8.1-4.76,8.28-7.52c0.18-2.66,0.02-5.35,0.05-8.02c0.02-1.49-0.71-2.06-2.15-2.04
	C398.69,93.12,395.18,93.1,391.67,93.09z M391.17,137.18c1.51,0,3.02,0,4.53,0c8.98,0,8.98,0,8.63-9.12
	c-0.14-3.69-4.26-8.13-7.9-8.22c-5.2-0.12-10.4,0-15.59-0.05c-1.82-0.02-2.78,0.47-2.72,2.55c0.12,4.02,0.13,8.05-0.01,12.07
	c-0.08,2.3,0.95,2.87,3.01,2.8C384.46,137.1,387.81,137.18,391.17,137.18z"/>
<path class="st1" d="M860.36,119.83c-7.7,0-15.56,0.04-23.41-0.03c-1.88-0.01-2.17,0.95-2.16,2.5c0.04,6.54,0.04,13.09,0,19.64
	c-0.02,4.18-0.06,4.18-4.06,4.23c-0.84,0.01-1.68-0.06-2.52,0.01c-1.92,0.16-2.77-0.66-2.73-2.6c0.06-2.52,0.01-5.03,0.01-7.55
	c0-15.78-0.01-31.55,0.01-47.33c0.01-4.75,0.05-4.79,4.66-4.8c11.92-0.02,23.83-0.03,35.75,0c4.3,0.01,4.34,0.06,4.34,4.55
	c0.02,17.79,0.02,35.58,0,53.37c0,4.32-0.05,4.32-4.44,4.34c-0.67,0-1.35-0.08-2.01,0.01c-2.27,0.3-2.93-0.8-2.9-2.9
	c0.07-6.21,0.04-12.42,0-18.63C860.88,123.19,861.19,121.67,860.36,119.83z M847.83,110.64c3.35,0,6.71-0.08,10.06,0.03
	c2.03,0.07,3.16-0.44,3.1-2.74c-0.1-4.02-0.11-8.05,0.01-12.07c0.07-2.29-1.02-2.83-3.06-2.81c-6.71,0.07-13.42,0.07-20.12,0
	c-2-0.02-3.16,0.44-3.1,2.76c0.11,4.02,0.11,8.05,0,12.07c-0.06,2.27,0.98,2.86,3.05,2.79
	C841.11,110.55,844.47,110.64,847.83,110.64z"/>
<path class="st0" d="M581.82,146.02c-0.78-1.28-0.55-2.65-0.56-3.97c-0.01-17.79-0.01-35.59-0.01-53.38c0-0.67,0.04-1.34,0.01-2.01
	c-0.09-1.86,0.68-2.82,2.64-2.71c1.34,0.07,2.69,0.01,4.03,0.01c11.42,0,22.83-0.02,34.25,0.02c3.62,0.01,3.71,0.09,3.72,3.58
	c0.03,18.46-0.03,36.93,0.07,55.39c0.01,2.6-0.73,3.73-3.39,3.39c-1.81-0.23-3.68,0.31-5.88-0.54c0-6.05,0-12.25,0-18.44
	c0-1.34-0.1-2.69,0.02-4.03c0.22-2.43-0.42-3.66-3.26-3.59c-6.71,0.18-13.43,0.14-20.14,0.01c-2.26-0.04-2.86,0.78-2.81,2.91
	c0.11,5.71,0.04,11.41,0.04,17.12c0,1.18-0.07,2.36,0.01,3.52c0.15,2.04-0.44,3.25-2.77,3.02
	C585.79,146.14,583.76,146.62,581.82,146.02z M603.72,93.09c-3.51,0-7.02,0.07-10.53-0.03c-1.88-0.05-2.75,0.55-2.72,2.54
	c0.08,4.18,0.08,8.36,0,12.53c-0.04,1.97,0.79,2.6,2.7,2.58c6.85-0.07,13.7-0.06,20.55-0.01c2.01,0.02,3.12-0.49,3.05-2.81
	c-0.13-4.01-0.12-8.02,0-12.03c0.06-2.26-0.96-2.88-3.02-2.81C610.41,93.17,607.06,93.09,603.72,93.09z"/>
<path class="st0" d="M519.68,145.92c-9.19,1.01-9.19,1.01-9.19-7.25c0-2.69-0.28-5.41,0.07-8.05c0.52-3.98-1.22-6.65-4-9.14
	c-1.38-1.23-2.75-1.71-4.52-1.69c-4.87,0.05-9.74,0.11-14.6-0.02c-2.38-0.07-3.26,0.7-3.2,3.15c0.14,6.04,0.06,12.08,0.03,18.13
	c-0.01,1.66,0.26,3.36-0.39,4.95c-8.76,0.88-8.76,0.88-8.76-7.31c0-16.11,0-32.23,0-48.34c0-1.17,0.05-2.35-0.01-3.52
	c-0.12-2.17,0.91-2.93,3.02-2.91c6.21,0.08,12.42,0.03,18.63,0.03c5.2,0,10.41-0.06,15.61,0.02c4.14,0.07,7.19,3.11,7.28,7.23
	c0.09,4.19-0.12,8.4,0.07,12.59c0.13,2.89-0.5,5.25-2.88,7.06c-0.93,0.7-1.62,1.7-2.52,2.46c-1.45,1.23-1.8,2.51-0.07,3.63
	c5.44,3.53,5.81,8.8,5.48,14.55C519.46,136.3,519.68,141.16,519.68,145.92z M494.25,110.69c1.85,0,3.69,0,5.54,0
	c6.66-0.02,10.73-4.12,10.75-10.83c0-1.34-0.05-2.69,0.01-4.03c0.07-1.8-0.48-2.79-2.54-2.77c-7.05,0.07-14.1,0.07-21.16,0
	c-1.98-0.02-2.66,0.82-2.64,2.7c0.06,4.03,0.1,8.06-0.02,12.09c-0.07,2.26,0.92,2.95,3.01,2.86
	C489.54,110.62,491.9,110.69,494.25,110.69z"/>
<path class="st0" d="M466.7,115.45c0,9.06,0.02,18.12-0.01,27.19c-0.01,3.6-0.07,3.68-3.49,3.67c-6.42-0.02-5.59,0.7-5.63-5.6
	c-0.04-5.71,0.02-11.41-0.02-17.12c-0.02-3.66-0.06-3.74-3.46-3.77c-6.55-0.05-13.09,0.09-19.64-0.07
	c-2.41-0.06-3.19,0.63-3.14,3.09c0.16,6.71-0.06,13.43,0.11,20.14c0.07,2.67-0.84,3.68-3.44,3.35c-0.83-0.1-1.69-0.12-2.51,0
	c-2.79,0.42-3.37-0.97-3.36-3.45c0.07-18.46,0.02-36.92,0.06-55.38c0.01-3.46,0.12-3.53,3.78-3.54c12.25-0.04,24.5-0.03,36.76,0
	c3.95,0.01,3.98,0.07,3.99,4.3C466.72,97.32,466.7,106.39,466.7,115.45z M444.1,110.69c3.52,0,7.03-0.06,10.55,0.02
	c2.07,0.05,3.06-0.59,2.99-2.85c-0.13-4.01-0.09-8.04-0.02-12.05c0.03-1.86-0.56-2.76-2.56-2.74c-7.03,0.06-14.07,0.07-21.1-0.01
	c-1.94-0.02-2.69,0.64-2.65,2.59c0.09,4.18,0.1,8.37,0,12.56c-0.05,2.07,0.91,2.55,2.75,2.51
	C437.4,110.63,440.75,110.69,444.1,110.69z"/>
<path class="st0" d="M528.22,114.83c0-9.06-0.03-18.11,0.02-27.17c0.02-3.59,0.09-3.68,3.61-3.7c11.24-0.04,22.47-0.07,33.71,0.01
	c4.1,0.03,7.05,3.15,7.11,7.3c0.06,4.19-0.14,8.39,0.07,12.57c0.14,2.9-0.54,5.21-2.88,7.03c-1.05,0.82-1.88,1.92-2.86,2.82
	c-1.09,1-1.17,1.94-0.03,2.93c0.13,0.11,0.22,0.26,0.36,0.35c5.17,3.38,5.92,8.35,5.43,14.01c-0.34,3.99-0.15,8.05-0.04,12.07
	c0.06,2.18-0.28,3.39-2.96,3.31c-7.36-0.22-6.12,0.53-6.21-6.14c-0.05-4.02,0.04-8.05-0.02-12.07c-0.07-3.98-4.28-8.26-8.3-8.33
	c-5.03-0.1-10.06,0.06-15.09-0.06c-2.22-0.05-2.87,0.78-2.83,2.93c0.11,6.54,0.06,13.08,0.03,19.62c-0.02,3.97-0.05,4-4.19,3.99
	c-5.26-0.01-4.92,0.53-4.92-4.82C528.22,132.61,528.22,123.72,528.22,114.83z M546.9,110.69c3.05,0,5.56-0.02,8.07,0.01
	c1.19,0.01,2.39,0.05,3.28-0.88c2.84-2.92,6.63-5.35,5.36-10.44c-0.27-1.1-0.13-2.34-0.02-3.5c0.21-2.24-0.81-2.87-2.93-2.82
	c-5.35,0.11-10.71,0.03-16.06,0.03c-7.29,0-7.32,0-7.28,7.45c0.02,3.17,0.16,6.34,0.24,9.51
	C540.77,111.5,544.16,110.23,546.9,110.69z"/>
<path class="st0" d="M772.57,115.15c0-9.23,0.08-18.47-0.05-27.7c-0.03-2.56,0.64-3.61,3.36-3.57c8.9,0.13,17.8,0.09,26.7,0.02
	c1.99-0.02,3.63,0.43,4.89,2.01c0.1,0.13,0.24,0.23,0.36,0.35c3.01,3.14,7.05,5.81,8.72,9.55c1.51,3.38,0.45,7.91,0.47,11.93
	c0.03,7.89-0.08,15.78,0.06,23.67c0.04,2.38-0.63,4.13-2.38,5.72c-3.09,2.83-5.6,6.68-9.17,8.49c-3.42,1.73-7.9,0.45-11.92,0.5
	c-5.88,0.07-11.76-0.09-17.63,0.07c-2.56,0.07-3.51-0.64-3.47-3.35C772.66,133.62,772.57,124.38,772.57,115.15z M781.7,115.13
	c0,6.37,0.09,12.75-0.05,19.12c-0.05,2.24,0.72,2.87,2.88,2.81c4.86-0.14,9.73,0.01,14.59-0.06c3.84-0.06,8.73-4.83,8.77-8.62
	c0.07-8.89,0.07-17.78,0-26.67c-0.03-3.44-4.9-8.49-8.34-8.58c-5.03-0.13-10.07,0.06-15.09-0.08c-2.28-0.06-2.83,0.87-2.8,2.96
	C781.76,102.38,781.7,108.75,781.7,115.13z"/>
<path class="st0" d="M706.43,135.57c3.85-4.03,7.01-7.51,10.38-10.77c1.82-1.76,2.59-3.57,2.55-6.14
	c-0.15-10.07-0.09-20.14-0.03-30.21c0.01-1.41-0.78-3.42,0.94-4.09c2.34-0.91,4.98-0.79,7.38-0.05c1.34,0.42,0.82,2.04,0.83,3.15
	c0.03,9.57-0.49,19.17,0.18,28.69c0.51,7.22-1.57,12.45-7.14,16.94c-4.03,3.24-7.4,7.3-11.12,10.94c-3.08,3.02-5.08,3.08-8.09,0.12
	c-5.51-5.41-10.9-10.94-16.41-16.34c-1.43-1.4-1.98-2.9-1.97-4.9c0.07-11.75,0.01-23.5,0.05-35.24c0.01-3.6,0.09-3.6,3.63-3.73
	c0.5-0.02,1.01-0.01,1.51,0c3.9,0.06,3.95,0.06,3.97,3.83c0.04,6.38,0.01,12.76,0.01,19.13c0,3.36,0.29,6.74-0.08,10.06
	c-0.41,3.76,1.05,6.31,3.72,8.73C699.96,128.59,702.84,131.87,706.43,135.57z"/>
<path class="st0" d="M763.54,137.36c0.88,8.79,0.88,8.79-7.36,8.79c-6.19,0-12.38,0-18.68,0c-0.15-1.13-0.32-1.95-0.35-2.77
	c-0.21-6.09-0.2-6.26,5.91-6.3c2.62-0.02,3-1.07,2.99-3.29c-0.07-12.42-0.1-24.84,0.02-37.25c0.02-2.63-0.81-3.71-3.43-3.46
	c-1.16,0.11-2.35,0.02-3.52-0.01c-0.86-0.02-1.81-0.12-1.85-1.21c-0.08-2.17-0.11-4.36,0.01-6.53c0.07-1.32,1.24-1.4,2.26-1.4
	c7.38-0.01,14.77,0.01,22.15-0.01c1.44,0,2.21,0.56,2.2,2.05c-0.01,0.5,0,1.01,0.02,1.51c0.17,5.44,0.17,5.44-5.1,5.61
	c-3.53,0.11-3.59,0.11-3.6,3.64c-0.03,12.25-0.03,24.5,0,36.75c0.01,3.44,0.08,3.44,3.62,3.52c1.34,0.03,2.68,0.08,4.01,0.13
	C763,137.15,763.16,137.24,763.54,137.36z"/>
<path class="st1" d="M643.7,115.76c-0.28-6.9-0.49-13.75-0.86-20.59c-0.12-2.26,0.85-2.92,2.91-2.92c2.84,0,5.69-0.09,8.53-0.3
	c2.12-0.16,3.1,0.6,3.12,2.77c0.05,4.18,0.18,8.37,0.32,12.55c0.13,3.7,0.16,3.7,4.14,3.04c0-5.39,0.02-10.73-0.01-16.06
	c-0.01-1.46,0.07-2.63,2.06-2.61c1.7,0.02,2.89,0.2,2.93,2.35c0.12,6.36,0.36,12.71,0.56,19.07c0.05,1.49-0.23,2.7-2.08,2.7
	C658.16,115.76,651.01,115.76,643.7,115.76z M652.87,104.45c-0.06,0-0.12,0-0.18,0c0-1.85,0.01-3.69,0-5.54
	c-0.01-1.98-1.41-1.92-2.81-1.92c-1.46-0.01-2.17,0.66-2.1,2.13c0.14,3.19,0.39,6.37,0.37,9.56c-0.01,2.06,0.88,2.62,2.75,2.52
	c1.88-0.1,2.09-1.21,2-2.71C652.81,107.14,652.87,105.8,652.87,104.45z"/>
<path class="st1" d="M644.54,141.74c-0.23-5.19-0.55-10.37-0.64-15.55c-0.04-2.14-0.66-3.09-2.9-2.78
	c-1.32,0.18-2.68,0.08-4.01,0.21c-2,0.2-2.62-0.75-2.65-2.63c-0.03-1.75,0.64-2.31,2.34-2.35c9.55-0.23,19.1-0.54,28.65-0.85
	c1.74-0.06,2.36,0.76,2.39,2.4c0.11,6.37,0.23,12.74,0.44,19.11c0.07,2.19-1.23,2.45-2.89,2.45
	C658.57,141.73,651.88,141.74,644.54,141.74z M663.02,130.16c-0.22-7.4-0.22-7.47-7.51-7.25c-8.21,0.25-6.75-0.86-6.69,7.08
	c0.05,7.12,0.15,7.12,7.36,7.03C663.22,136.94,663.22,136.94,663.02,130.16z"/>
<g>
	<path class="st0" d="M338.86,139.73c0.87,0.31,0.55,0.82,0.22,1.33c0,0.66,0,1.32,0,1.99c0.46,0.53,0.43,1.09,0.09,1.66
		c-0.07,0.38-0.14,0.75-0.21,1.13c-1.19,0.08-2.39,0.24-3.58,0.24c-69.59,0.01-139.18,0.01-208.77,0c-1.05,0-2.1-0.1-3.15-0.15
		c-0.36-0.22-0.73-0.45-1.09-0.67c-1.05-4.99-1.06-5.14,3.42-5.36c2.21-0.11,2.42-1.24,2.26-2.87c-0.2-2.04,0.48-3.2,2.71-2.91
		c2.98,0.39,3.61-1.26,3.34-3.75c-0.21-1.92,0.67-2.77,2.59-2.59c1.04,0.1,2.08,0.15,3.12,0.22c0.07,1.19,0.1,2.39,0.22,3.58
		c0.18,1.86-0.48,2.63-2.49,2.72c-3.2,0.14-3.2,0.31-3.24,3.64c-0.01,0.6,0.05,1.2,0.07,1.8c1.29,1.58,3.08,0.93,4.66,0.94
		c48.89,0.03,97.78,0.03,146.67,0.01c1.46,0,3.04,0.45,4.34-0.68c0.37-0.1,0.74-0.21,1.11-0.31c15.96,0.05,31.91,0.1,47.87,0.16
		L338.86,139.73z"/>
	<path class="st0" d="M141.58,85.66c1.5-0.05,3-0.15,4.51-0.15c62.8-0.01,125.6-0.01,188.4,0c1.49,0,2.99,0.16,4.49,0.24
		c0.07,0.38,0.13,0.75,0.2,1.13c0.06,0.19,0.14,0.38,0.17,0.58c0.01,0.04-0.17,0.11-0.26,0.17c0,0.96,0,1.93,0,2.89
		c0.36,0.51,0.71,1.02-0.21,1.33c0,0,0.16-0.1,0.16-0.1c-15.96,0.05-31.91,0.1-47.87,0.16c-0.37-0.1-0.74-0.21-1.11-0.31
		c-1-0.95-2.26-0.69-3.44-0.69c-43.46-0.01-86.91-0.01-130.37,0.01c-1.3,0-2.77-0.4-3.75,0.95c-0.13,4.94-0.13,4.94,4.48,5.49
		c0.51,0.06,0.75,0.39,0.96,0.79c-1.85,0.01-3.7,0.03-5.54,0.04c-0.91-0.63-1.95-0.81-3.01-0.68c-2.62,0.33-3.5-0.91-3.2-3.34
		c0.2-1.65-0.42-2.58-2.24-2.41c-0.59,0.06-1.2-0.06-1.8,0.01c-1.88,0.2-2.36-0.81-2.19-2.43c0.1-1.01-0.27-2.12,0.6-2.98
		C140.88,86.12,141.23,85.89,141.58,85.66z"/>
	<path class="st1" d="M345.36,97.22c1.93,0,3.86,0,6.03,0c0,12.37,0,24.37,0,36.67c-1.98,0.16-4.01,0.32-6.05,0.49c-2,0-4,0-5.99,0
		c1.64-1.78,4.01,0.15,5.99-1.31c0-10.9-0.03-21.98,0.03-33.07c0.01-1.82-0.7-2.37-2.36-2.24c-0.74,0.06-1.5-0.05-2.24-0.08
		C342.23,96.77,343.81,97.22,345.36,97.22z"/>
	<path class="st1" d="M122.48,145.99c-1.17,1.9,0.18,4.19-0.91,6.14c-1.79,0-3.56,0-5.28,0c-0.14-0.45-0.3-0.73-0.32-1.02
		c-0.32-4.76-0.32-4.75-5.06-5.08c-0.26-0.02-0.51-0.25-0.91-0.44c-0.08-1.69-0.17-3.46-0.26-5.18c-2-0.7-4.04,0.21-5.91-0.7
		c-0.49-1.78-0.18-3.59-0.21-5.39c0,0-0.02-0.02-0.02-0.02c1.04-0.07,2.07-0.11,3.11-0.21c2.17-0.22,3.52,0.41,3.14,2.92
		c-0.39,2.52,0.98,3.1,3.11,2.82c2.52-0.33,3.58,0.72,3.24,3.24c-0.29,2.11,0.6,3.01,2.76,2.83c1.17-0.1,2.37,0.12,3.55,0.19
		L122.48,145.99z"/>
	<path class="st1" d="M103.63,134.32c-1.74-0.65-3.56,0.09-5.36-0.34c-1.04-1.77-0.02-3.83-0.79-5.82
		c-1.68-0.09-3.44-0.19-5.25-0.29c-1.09-1.82,0.13-3.89-0.83-5.73c-1.73-0.08-3.51-0.16-5.52-0.24c-0.73-1.89-0.29-3.81-0.35-5.68
		l-0.02-0.02c1.33-0.06,2.66-0.14,4-0.19c1.38-0.06,2.1,0.43,2.29,1.99c0.43,3.67,0.52,3.66,4.39,3.74c0.59,0.01,1.19,0.06,1.78,0.1
		c0.31,5.79,0.31,5.79,5.72,6.06c0.3,2.14,0.19,4.28-0.05,6.41L103.63,134.32z"/>
	<path class="st0" d="M85.52,116.21c-1.73-0.75-3.56-0.01-5.57-0.38c0-5.97,0-11.94,0-18.09c1.78-0.88,3.75-0.03,5.61-0.36
		l-0.06-0.09c0.33,6.3,0.33,12.6,0,18.9L85.52,116.21z"/>
	<path class="st0" d="M97.82,85.47c0-1.92,0-3.84,0-6.24c3.37,0,6.45,0.12,9.51-0.04c2.11-0.12,3.12,0.45,2.8,2.71
		c-0.17,1.18-0.17,2.38-0.24,3.57l-0.01,0c-4.05,0.01-8.09,0.02-12.14,0.03L97.82,85.47z"/>
	<path class="st0" d="M128.04,85.5c0-1.94,0-3.87,0-6c4-0.5,7.83-0.26,11.53-0.17c1.22,2.11-0.27,4.4,1.02,6.27
		c0,0,0.03-0.1,0.03-0.1c-4.19,0.16-8.38,0.29-12.57-0.02L128.04,85.5z"/>
	<path class="st1" d="M97.82,85.47l-0.09,0.02c0.81,6.23,0.81,6.23-5.08,6.25c-0.29,0-0.59,0.04-0.88,0.06l-0.07-0.1
		c0-1.9,0-3.81,0-5.77C93.76,85.08,95.82,85.68,97.82,85.47z"/>
	<path class="st1" d="M121.55,91.63c0.32-6.16,0.32-6.16,6.48-6.13c0,0,0.01-0.02,0.01-0.02c-0.17,6.18-0.17,6.18-6.36,6.36
		L121.55,91.63z"/>
	<path class="st1" d="M109.88,85.46c6.11,0.07,6.11,0.07,6.49,6.13c0,0-0.16,0.27-0.16,0.26c-6.19-0.23-6.19-0.23-6.34-6.4
		L109.88,85.46z"/>
	<path class="st2" d="M345.36,97.22c-1.54,0.01-3.13-0.45-4.59,0.45c-1.04,0.26-1.65-0.07-1.67-1.21c-0.03-1.57-0.06-3.13-0.08-4.7
		c0,0-0.16,0.1-0.16,0.1c0.41-0.13,0.82-0.36,1.23-0.37C345.88,91.36,345.88,91.37,345.36,97.22z"/>
	<path class="st0" d="M85.56,97.37c-0.14-6.15-0.14-6.15,6.13-5.67c0,0,0.07,0.1,0.07,0.1c-0.01,1.79-0.03,3.58-0.04,5.37
		c-2.07,0.5-4.14,0.37-6.22,0.11L85.56,97.37z"/>
	<path class="st2" d="M339.35,134.38c2,0,4,0,5.99,0c0.6,6.28,0.6,6.28-6.48,5.36c0,0,0.16,0.1,0.16,0.1
		C339.13,138.01,339.24,136.19,339.35,134.38z"/>
	<path class="st2" d="M116.38,91.6c1.73,0.01,3.45,0.02,5.18,0.03c0,0,0.13,0.21,0.13,0.21c0.07,1.19,0.13,2.39,0.2,3.58
		c0.09,1.6-0.83,1.98-2.24,2.06c-3.21,0.18-3.57-0.09-3.62-3.38c-0.01-0.74,0.13-1.49,0.2-2.23L116.38,91.6z"/>
	<path class="st1" d="M339.07,90.53c0-0.96,0-1.93,0-2.89C339.64,88.6,339.63,89.57,339.07,90.53z"/>
	<path class="st1" d="M122.37,145.26c0.36,0.22,0.73,0.45,1.09,0.67c-0.33,0.02-0.66,0.04-0.98,0.06c0,0,0.03,0.09,0.03,0.09
		C122.38,145.82,122.33,145.55,122.37,145.26z"/>
	<path class="st1" d="M339.08,143.05c0-0.66,0-1.32,0-1.99C339.57,141.72,339.57,142.38,339.08,143.05z"/>
	<path class="st1" d="M339.17,86.89c-0.07-0.38-0.13-0.75-0.2-1.13C340.13,85.94,339.54,86.44,339.17,86.89z"/>
	<path class="st1" d="M141.58,85.66c-0.35,0.23-0.7,0.46-1.05,0.68c-0.03-0.29-0.01-0.57,0.08-0.84c0,0-0.03,0.1-0.03,0.1
		C140.92,85.63,141.25,85.64,141.58,85.66z"/>
	<path class="st1" d="M338.97,145.84c0.07-0.38,0.14-0.75,0.21-1.13C339.53,145.16,340.1,145.66,338.97,145.84z"/>
	<path class="st3" d="M290.04,91.6c0.37,0.1,0.74,0.21,1.11,0.31c0,15.92,0,31.84,0,47.76c-0.37,0.1-0.74,0.21-1.11,0.31
		c-1.81-0.05-3.61-0.15-5.42-0.15c-48.27-0.01-96.55-0.01-144.82-0.01c-1.81,0-3.62-0.06-5.43-0.1c-0.03-0.6-0.08-1.2-0.07-1.8
		c0.05-3.33,0.05-3.5,3.24-3.64c2.01-0.09,2.67-0.86,2.49-2.72c-0.12-1.19-0.15-2.39-0.22-3.58c0,0-0.08,0.06-0.08,0.06
		c0.6-0.03,1.21-0.07,1.81-0.08c4.12-0.08,4.22-0.06,4.81-4.03c0.28-1.93,1.46-2.14,2.87-1.98c2.71,0.3,3.44-1.04,3.19-3.44
		c-0.09-0.9-0.02-1.81-0.02-2.71c0.65,0.32,1.3,0.26,1.97,0.07c1.21,0.05,2.55,0.89,3.54-0.53c0.38-5.73,0.36-11.47,0.02-17.2
		c-0.21-0.4-0.45-0.73-0.96-0.79c-4.6-0.55-4.6-0.55-4.48-5.49c1.81-0.03,3.62-0.1,5.43-0.1c42.24-0.01,84.47,0,126.71-0.01
		C286.42,91.76,288.23,91.66,290.04,91.6z"/>
	<path class="st3" d="M140.61,85.5c-0.09,0.27-0.11,0.55-0.08,0.84c-0.87,0.86-0.49,1.96-0.6,2.98c-0.17,1.63,0.31,2.63,2.19,2.43
		c0.59-0.06,1.2,0.05,1.8-0.01c1.82-0.17,2.44,0.76,2.24,2.41c-0.29,2.44,0.59,3.67,3.2,3.34c1.05-0.13,2.09,0.05,3.01,0.68
		c-0.22,5.7-0.32,11.4,0.06,17.09c-0.76,0.53-1.62,0.67-2.54,0.73c-3.31,0.24-3.35,0.25-3.7,3.62c-0.12,1.12-0.17,2.02-1.65,2.12
		c-1.44,0.1-3.27-0.7-4.24,0.62c-0.98,1.33-0.15,3.2-0.45,4.8c-0.05,0.29-0.08,0.59-0.11,0.89c0,0,0.08-0.06,0.08-0.06
		c-1.04-0.07-2.08-0.12-3.12-0.22c-1.92-0.18-2.8,0.67-2.59,2.59c0.27,2.49-0.37,4.14-3.34,3.75c-2.23-0.29-2.91,0.87-2.71,2.91
		c0.16,1.63-0.05,2.76-2.26,2.87c-4.48,0.22-4.47,0.37-3.42,5.36c-0.04,0.29,0.01,0.56,0.14,0.82c-1.18-0.07-2.38-0.29-3.55-0.19
		c-2.16,0.18-3.05-0.72-2.76-2.83c0.35-2.52-0.72-3.57-3.24-3.24c-2.12,0.28-3.49-0.3-3.11-2.82c0.38-2.5-0.97-3.13-3.14-2.92
		c-1.03,0.1-2.07,0.15-3.11,0.21c0.24-2.14,0.36-4.27,0.05-6.41l0.18-0.15c1.2,0.04,2.41,0.04,3.61,0.11c1.6,0.1,2.54-0.28,2.46-2.2
		c-0.13-3.13-0.03-6.27-0.03-9.47c-0.69-0.09-1.11-0.2-1.52-0.2c-4.24-0.03-4.38-0.02-4.63-4.12c-0.12-2-1.14-2.01-2.61-2.1
		c-3.09-0.19-3.09-0.26-3.17-3.33c-0.02-0.75,0-1.5,0-2.26c0-6.05,0-6.05-5.9-6.67c-0.11-0.11-0.22-0.22-0.33-0.33
		c0.01-1.79,0.03-3.58,0.04-5.37c0.29-0.02,0.59-0.06,0.88-0.06c5.9-0.02,5.9-0.02,5.08-6.25c4.05-0.01,8.09-0.02,12.14-0.03
		c0.15,6.17,0.15,6.17,6.34,6.4c-0.07,0.74-0.21,1.49-0.2,2.23c0.05,3.29,0.42,3.57,3.62,3.38c1.41-0.08,2.33-0.45,2.24-2.06
		c-0.07-1.19-0.13-2.38-0.2-3.58c6.19-0.18,6.19-0.18,6.36-6.36C132.23,85.79,136.42,85.66,140.61,85.5z"/>
	<path class="st1" d="M134.37,139.73c1.81,0.03,3.62,0.1,5.43,0.1c48.27,0.01,96.55,0,144.82,0.01c1.81,0,3.61,0.1,5.42,0.15
		c-1.3,1.13-2.88,0.68-4.34,0.68c-48.89,0.02-97.78,0.02-146.67-0.01C137.45,140.66,135.66,141.31,134.37,139.73z"/>
	<path class="st1" d="M290.04,91.6c-1.81,0.05-3.61,0.15-5.42,0.15c-42.24,0.01-84.47,0.01-126.71,0.01c-1.81,0-3.62,0.06-5.43,0.1
		c0.99-1.35,2.45-0.95,3.75-0.95c43.46-0.02,86.91-0.02,130.37-0.01C287.78,90.91,289.04,90.65,290.04,91.6z"/>
	<path class="st2" d="M152.43,115.27c-0.37-5.7-0.27-11.39-0.06-17.09c1.85-0.01,3.7-0.03,5.54-0.04c0.34,5.73,0.36,11.47-0.02,17.2
		c-1.19,0.09-2.46-0.32-3.54,0.53c-0.66,0.19-1.32,0.25-1.97-0.06C152.45,115.64,152.46,115.46,152.43,115.27z"/>
	<path class="st3" d="M85.5,97.29c2.08,0.26,4.16,0.39,6.22-0.11c0.11,0.11,0.22,0.22,0.33,0.33c0,5.98,0,11.96,0,17.92
		c5.84,0.55,5.84,0.55,6.07,6.26l-0.18,0.14c-0.59-0.03-1.19-0.08-1.78-0.1c-3.86-0.09-3.96-0.07-4.39-3.74
		c-0.18-1.56-0.9-2.05-2.29-1.99c-1.33,0.05-2.66,0.13-4,0.19C85.83,109.89,85.83,103.59,85.5,97.29z"/>
	<path class="st3" d="M103.66,127.89c-5.41-0.28-5.41-0.28-5.72-6.06c0,0,0.18-0.14,0.18-0.14c5.5,0.24,5.5,0.24,5.69,5.62
		c0.01,0.15,0.02,0.29,0.03,0.44L103.66,127.89z"/>
	<path class="st0" d="M152.43,115.27c0.03,0.18,0.02,0.36-0.03,0.54c0,0.9-0.07,1.82,0.02,2.71c0.25,2.4-0.48,3.74-3.19,3.44
		c-1.41-0.16-2.59,0.06-2.87,1.98c-0.59,3.97-0.69,3.95-4.81,4.03c-0.6,0.01-1.21,0.05-1.81,0.08c0.04-0.3,0.06-0.6,0.11-0.89
		c0.29-1.61-0.53-3.48,0.45-4.8c0.97-1.32,2.8-0.52,4.24-0.62c1.48-0.1,1.53-1,1.65-2.12c0.35-3.36,0.39-3.38,3.7-3.62
		C150.8,115.94,151.66,115.81,152.43,115.27z"/>
	<path class="st0" d="M154.36,115.88c1.08-0.85,2.34-0.44,3.54-0.53C156.91,116.77,155.58,115.93,154.36,115.88z"/>
	<path class="st4" d="M103.84,127.74c-0.01-0.15-0.02-0.29-0.03-0.44c-0.2-5.38-0.19-5.38-5.69-5.62c-0.24-5.71-0.24-5.71-6.07-6.26
		c0-5.96,0-11.94,0-17.92c5.9,0.62,5.9,0.62,5.9,6.67c0,0.75-0.02,1.5,0,2.26c0.08,3.07,0.08,3.14,3.17,3.33
		c1.48,0.09,2.49,0.1,2.61,2.1c0.24,4.11,0.38,4.09,4.63,4.12c0.41,0,0.83,0.11,1.52,0.2c0,3.2-0.09,6.34,0.03,9.47
		c0.08,1.93-0.87,2.31-2.46,2.2C106.25,127.77,105.05,127.77,103.84,127.74z"/>
</g>
<rect x="-1299.09" y="500" class="st5" width="224.5" height="224.5"/>
</svg>
